<svg xmlns="http://www.w3.org/2000/svg" viewBox="0 0 520 132" role="img" aria-labelledby="title desc">
  <title id="title">Purulia Properties logo</title>
  <desc id="desc">A blue rounded rectangle logo with an orange roofline, a white window, and the Purulia Properties wordmark.</desc>
  <rect width="520" height="132" rx="24" fill="#1e4ea1" />
  <path
    d="M28 78L106 32L132 58L232 10H242L310 78L292 96L236 40L132 92L104 64L46 96Z"
    fill="none"
    stroke="#f59f0b"
    stroke-linecap="round"
    stroke-linejoin="round"
    stroke-width="14"
  />
  <path d="M214 64A10 10 0 0 1 224 54A10 10 0 0 1 234 64V72H214Z" fill="#ffffff" opacity="0.95" />
  <path d="M236 64A10 10 0 0 1 246 54A10 10 0 0 1 256 64V72H236Z" fill="#ffffff" opacity="0.95" />
  <rect x="214" y="74" width="20" height="16" fill="#ffffff" opacity="0.95" />
  <rect x="236" y="74" width="20" height="16" fill="#ffffff" opacity="0.95" />
  <rect x="234" y="54" width="2.5" height="36" fill="#1e4ea1" opacity="0.85" />
  <rect x="214" y="72" width="42" height="3" fill="#1e4ea1" opacity="0.85" />
  <rect x="214" y="94" width="42" height="3" fill="#ffffff" opacity="0.9" />
  <text x="44" y="112" fill="#f59f0b" font-family="Arial, Helvetica, sans-serif" font-size="70" font-weight="900">P</text>
  <text x="92" y="112" fill="#ffffff" font-family="Arial, Helvetica, sans-serif" font-size="70" font-weight="900">P</text>
  <text x="170" y="76" fill="#ffffff" font-family="Arial, Helvetica, sans-serif" font-size="34" font-weight="800" letter-spacing="1">PURULIA</text>
  <text x="170" y="112" fill="#ffffff" font-family="Arial, Helvetica, sans-serif" font-size="46" font-weight="900" letter-spacing="0.5">PROPERTIES</text>
</svg>
