<svg xmlns="http://www.w3.org/2000/svg" viewBox="0 0 256 256" role="img" aria-labelledby="title desc">
  <title id="title">Purulia Properties icon</title>
  <desc id="desc">A blue square icon with an orange roofline and a white window.</desc>
  <rect width="256" height="256" rx="44" fill="#1e4ea1" />
  <path
    d="M34 150L96 88L126 118L188 56H198L230 88V66H244V104L248 108L236 120L192 76L126 142L96 112L46 162Z"
    fill="none"
    stroke="#f59f0b"
    stroke-linecap="round"
    stroke-linejoin="round"
    stroke-width="18"
  />
  <path
    d="M110 156V120C110 111.163 117.163 104 126 104H132C148.569 104 162 117.431 162 134C162 150.569 148.569 164 132 164H110Z"
    fill="#f59f0b"
  />
  <path
    d="M94 102C87.373 102 82 107.373 82 114V196C82 202.627 87.373 208 94 208C100.627 208 106 202.627 106 196V114C106 107.373 100.627 102 94 102Z"
    fill="#f59f0b"
  />
  <path
    d="M144 102C137.373 102 132 107.373 132 114V196C132 202.627 137.373 208 144 208C150.627 208 156 202.627 156 196V114C156 107.373 150.627 102 144 102Z"
    fill="#ffffff"
  />
  <path
    d="M156 104H170C186.569 104 200 117.431 200 134C200 150.569 186.569 164 170 164H156Z"
    fill="#ffffff"
  />
  <path d="M140 78A12 12 0 0 1 152 66A12 12 0 0 1 164 78V88H140Z" fill="#ffffff" opacity="0.95" />
  <path d="M166 78A12 12 0 0 1 178 66A12 12 0 0 1 190 78V88H166Z" fill="#ffffff" opacity="0.95" />
  <rect x="140" y="92" width="24" height="18" fill="#ffffff" opacity="0.95" />
  <rect x="166" y="92" width="24" height="18" fill="#ffffff" opacity="0.95" />
  <rect x="163.5" y="66" width="3" height="44" fill="#1e4ea1" opacity="0.85" />
  <rect x="140" y="88" width="50" height="4" fill="#1e4ea1" opacity="0.85" />
  <rect x="140" y="114" width="50" height="4" fill="#ffffff" opacity="0.9" />
</svg>
